# xmcd
#
# Track frame offsets:
#	150
#	11243
#	22425
#	38826
#	52400
#	64226
#	78908
#	91987
#	106291
#	123456
#	138421
#	149566
#	163563
#
# Disc length: 2350 seconds
#
# Revision: 0
# Processed by: cddbd v1.5.2PL0 Copyright (c) Steve Scherf et al.
# Submitted via: dBpowerAMP V4.0
#
DISCID=c0092c0d
DTITLE=arum rae - too young to sing the blues
DYEAR=2006
DGENRE=Blues
TTITLE0=looking for love
TTITLE1=home
TTITLE2=so bad
TTITLE3=misunderstood
TTITLE4=60 dollars
TTITLE5=too young TO sing the blues
TTITLE6=human
TTITLE7=i don't have a heart
TTITLE8=i fell on a dime
TTITLE9=didn't i
TTITLE10=solitude lane
TTITLE11=don't want to be buried when i'm dead
TTITLE12=noBody but me
EXTD=
EXTT0=
EXTT1=
EXTT2=
EXTT3=
EXTT4=
EXTT5=
EXTT6=
EXTT7=
EXTT8=
EXTT9=
EXTT10=
EXTT11=
EXTT12=
PLAYORDER=
